<svg width="72" height="73" viewBox="0 0 72 73" fill="none" xmlns="http://www.w3.org/2000/svg">
<g clip-path="url(#clip0_1065_4950)">
<path d="M69 6.08325H3C2.20435 6.08325 1.44129 6.40371 0.87868 6.97414C0.316071 7.54456 0 8.31822 0 9.12492L0 63.8749C0 64.6816 0.316071 65.4553 0.87868 66.0257C1.44129 66.5961 2.20435 66.9166 3 66.9166H69C69.7956 66.9166 70.5587 66.5961 71.1213 66.0257C71.6839 65.4553 72 64.6816 72 63.8749V9.12492C72 8.31822 71.6839 7.54456 71.1213 6.97414C70.5587 6.40371 69.7956 6.08325 69 6.08325ZM66 60.8332H60V57.7916H45V60.8332H6V12.1666H66V60.8332ZM30.87 29.5345C30.87 28.155 31.4105 26.8321 32.3725 25.8567C33.3346 24.8812 34.6394 24.3333 36 24.3333C38.85 24.3333 41.13 26.6753 41.13 29.5345C41.13 32.4241 38.85 34.7662 36 34.7662C33.15 34.7662 30.87 32.4241 30.87 29.5345ZM17.13 34.3403C17.13 32.1807 18.87 30.4166 21 30.4166C22.0264 30.4166 23.0107 30.83 23.7365 31.5658C24.4623 32.3017 24.87 33.2997 24.87 34.3403C24.87 36.4999 23.13 38.2337 21 38.2337C18.87 38.2337 17.13 36.4999 17.13 34.3403ZM47.13 34.3403C47.13 33.2997 47.5377 32.3017 48.2635 31.5658C48.9893 30.83 49.9736 30.4166 51 30.4166C52.0264 30.4166 53.0107 30.83 53.7365 31.5658C54.4623 32.3017 54.87 33.2997 54.87 34.3403C54.87 36.4999 53.13 38.2337 51 38.2337C48.87 38.2337 47.13 36.4999 47.13 34.3403ZM60 46.0508V48.6666H12V46.0508C12 43.1916 16.65 40.8495 21 40.8495C22.65 40.8495 24.33 41.1841 25.8 41.762C28.05 39.6632 32.1 38.2337 36 38.2337C39.9 38.2337 43.95 39.6632 46.2 41.762C47.67 41.1841 49.35 40.8495 51 40.8495C55.35 40.8495 60 43.1916 60 46.0508Z" fill="#0A0E5B"/>
</g>
<defs>
<clipPath id="clip0_1065_4950">
<rect width="72" height="73" fill="white"/>
</clipPath>
</defs>
</svg>
